<svg width="49" height="49" viewBox="0 0 49 49" fill="none" xmlns="http://www.w3.org/2000/svg">
<path opacity="0.5" fill-rule="evenodd" clip-rule="evenodd" d="M21.2346 14.2788L22.2911 16.1698C23.2446 17.8764 22.8618 20.115 21.3602 21.615L14.3957 28.5718C11.7714 24.5958 11.3263 20.9229 11.4169 18.5341C11.4869 16.691 12.5471 15.0237 13.9096 13.6627C16.1771 11.3976 19.7949 11.702 21.2346 14.2788ZM27.9365 28.2414L27.9652 28.2128C29.4669 26.7128 31.708 26.3304 33.4165 27.2828L35.3096 28.3382C37.8893 29.7763 38.194 33.3901 35.9264 35.6551C34.5639 37.0161 32.8947 38.0751 31.0496 38.145C28.6581 38.2356 24.9811 37.791 21.0008 35.1695L21.0017 35.1685C19.8126 34.3852 18.5965 33.4076 17.3795 32.1919C16.1619 30.9757 15.1828 29.7603 14.3984 28.572L21.3629 21.6152C21.3629 21.6152 19.5414 23.4347 22.8439 26.7336C25.8955 29.7818 27.6826 28.4598 27.9365 28.2414Z" fill="#588A16"/>
</svg>
