<svg width="301" height="317" viewBox="0 0 301 317" fill="none" xmlns="http://www.w3.org/2000/svg">
<g clip-path="url(#clip0_1176_1409)">
<path d="M220.732 304.563L202.065 292.655L226.379 299.613C241.654 285.028 252.843 264.822 252.843 264.822C252.843 264.822 211.933 239.855 186.732 246.518C161.532 253.18 156.696 270.479 161.585 288.949C166.473 307.419 179.235 320.066 204.435 313.403C210.045 311.92 215.554 308.688 220.732 304.563Z" fill="#F2F2F2"/>
<path d="M200.198 288.813L198.956 289.142C184.498 292.885 172.588 293.43 163.392 290.752C163.257 290.715 163.127 290.671 162.992 290.634L163.177 290.013L163.361 289.418C173.33 292.451 185.934 291.125 198.545 287.863C198.953 287.762 199.367 287.659 199.777 287.544C205.104 286.116 210.41 284.364 215.511 282.457C215.907 282.313 216.308 282.161 216.709 282.009C223.428 279.456 229.756 276.665 235.211 274.079C235.597 273.898 235.982 273.711 236.36 273.525C245.574 269.11 252.103 265.365 253.545 264.523C253.723 264.424 253.819 264.365 253.842 264.353L254.163 264.893L254.171 264.897L254.493 265.443C254.47 265.456 254.147 265.653 253.541 265.997C251.28 267.299 245.121 270.755 236.846 274.738C236.472 274.916 236.087 275.103 235.701 275.284C231.277 277.388 226.3 279.617 221.019 281.737C219.693 282.272 218.381 282.783 217.082 283.271C216.683 283.429 216.283 283.581 215.886 283.725C210.373 285.788 205.143 287.484 200.198 288.813Z" fill="white"/>
<path d="M236.849 274.739C236.685 274.342 236.519 273.939 236.364 273.526C235.94 272.406 235.575 271.265 235.268 270.107C233.956 265.175 233.767 260.011 234.716 254.996C234.322 254.825 233.928 254.653 233.526 254.476C232.478 259.764 232.653 265.222 234.038 270.432C234.366 271.668 234.758 272.885 235.214 274.08C235.368 274.486 235.534 274.89 235.704 275.285C237.092 278.555 238.968 281.596 241.269 284.303C241.537 283.949 241.801 283.603 242.06 283.265C239.913 280.695 238.157 277.822 236.849 274.739Z" fill="white"/>
<path d="M217.084 283.271C216.948 282.853 216.823 282.432 216.711 282.008C216.67 281.881 216.635 281.746 216.6 281.617C215.185 276.271 215.085 270.662 216.307 265.268C217.53 259.875 220.039 254.857 223.621 250.642C223.193 250.492 222.765 250.342 222.333 250.2C218.733 254.558 216.224 259.71 215.013 265.23C213.802 270.75 213.925 276.479 215.371 281.942C215.416 282.114 215.462 282.286 215.513 282.456C215.633 282.885 215.758 283.306 215.889 283.725C217.962 290.198 221.856 295.938 227.107 300.257C227.418 299.964 227.729 299.672 228.038 299.373C222.897 295.185 219.09 289.589 217.084 283.271Z" fill="white"/>
<path d="M200.201 288.814C200.05 288.394 199.912 287.97 199.78 287.545C199.639 287.089 199.505 286.631 199.383 286.17C197.49 278.984 197.976 271.379 200.77 264.492C203.564 257.606 208.514 251.809 214.88 247.97C214.309 247.825 213.744 247.678 213.176 247.546C206.893 251.636 202.06 257.601 199.364 264.593C196.667 271.585 196.243 279.249 198.153 286.495C198.275 286.956 198.403 287.415 198.548 287.864C198.676 288.297 198.814 288.721 198.959 289.143C201.939 297.653 208.044 304.713 216.036 308.893C216.457 308.644 216.867 308.378 217.283 308.11C209.295 304.143 203.168 297.221 200.201 288.814Z" fill="white"/>
<path d="M175.495 314.014L83.1853 276.878C77.6537 274.646 73.234 270.311 70.8959 264.826C68.5579 259.341 68.4923 253.152 70.7137 247.619L164.764 14.0926C166.998 8.56402 171.335 4.14681 176.823 1.81001C182.312 -0.526786 188.504 -0.592331 194.04 1.62776L286.35 38.7633C291.881 40.9959 296.301 45.3303 298.639 50.8157C300.977 56.301 301.043 62.4893 298.821 68.0229L204.77 301.549C202.537 307.078 198.2 311.495 192.711 313.832C187.223 316.168 181.031 316.234 175.495 314.014Z" fill="#17282F"/>
<path d="M282.72 44.8229L272.445 40.6893C271.528 40.3213 270.502 40.3321 269.593 40.7193C268.683 41.1065 267.965 41.8386 267.594 42.7547C266.838 44.6279 265.369 46.1245 263.509 46.9162C261.65 47.7079 259.552 47.7299 257.677 46.9774L207.424 26.7609C205.549 26.0048 204.052 24.5365 203.26 22.6781C202.468 20.8198 202.446 18.7232 203.199 16.8486C203.567 15.9317 203.556 14.9063 203.169 13.9973C202.781 13.0884 202.049 12.3702 201.132 12.0004L192.072 8.35559C187.873 6.67244 183.177 6.72249 179.014 8.49475C174.852 10.267 171.563 13.6168 169.868 17.8095L76.4857 249.676C74.8016 253.873 74.8516 258.566 76.6249 262.726C78.3981 266.886 81.7497 270.174 85.9447 271.868L176.593 308.335C180.792 310.018 185.488 309.968 189.651 308.196C193.813 306.423 197.103 303.074 198.797 298.881L292.18 67.0148C293.864 62.8178 293.814 58.1246 292.04 53.9644C290.267 49.8043 286.915 46.5168 282.72 44.8229Z" fill="white"/>
<path d="M247.558 36.092L219.207 24.6868C218.939 24.5788 218.724 24.3685 218.611 24.1024C218.497 23.8362 218.494 23.5359 218.602 23.2675C218.71 22.9991 218.921 22.7846 219.187 22.6713C219.453 22.5579 219.754 22.5549 220.022 22.6629L248.373 34.0681C248.506 34.1216 248.627 34.2007 248.729 34.301C248.832 34.4013 248.913 34.5207 248.969 34.6525C249.026 34.7843 249.055 34.9259 249.057 35.0691C249.058 35.2123 249.031 35.3545 248.978 35.4874C248.924 35.6203 248.845 35.7413 248.745 35.8436C248.644 35.9459 248.525 36.0275 248.393 36.0836C248.261 36.1398 248.12 36.1694 247.976 36.1708C247.833 36.1723 247.691 36.1455 247.558 36.092Z" fill="white"/>
<path d="M252.428 37.7454C252.91 37.7454 253.301 37.3547 253.301 36.8727C253.301 36.3907 252.91 36 252.428 36C251.946 36 251.555 36.3907 251.555 36.8727C251.555 37.3547 251.946 37.7454 252.428 37.7454Z" fill="white"/>
<path d="M270.949 139.573C270.466 139.378 270.08 139 269.876 138.521C269.672 138.042 269.666 137.502 269.86 137.019L284.206 101.398C284.401 100.915 284.78 100.53 285.259 100.326C285.738 100.122 286.278 100.117 286.761 100.311C287.245 100.506 287.631 100.884 287.835 101.362C288.039 101.841 288.045 102.381 287.851 102.864L273.505 138.485C273.31 138.968 272.932 139.353 272.452 139.557C271.973 139.761 271.433 139.767 270.949 139.573Z" fill="#3F3D56"/>
<path d="M146.684 59.0059C146.201 58.8109 145.815 58.4325 145.61 57.9536C145.406 57.4746 145.401 56.9343 145.595 56.4512L148.855 48.3556C148.951 48.1159 149.093 47.8976 149.274 47.713C149.455 47.5284 149.67 47.3812 149.907 47.2798C150.145 47.1784 150.4 47.1249 150.658 47.1222C150.917 47.1195 151.173 47.1677 151.412 47.2641C151.652 47.3605 151.87 47.5031 152.055 47.6839C152.239 47.8647 152.386 48.08 152.487 48.3176C152.588 48.5552 152.641 48.8103 152.643 49.0685C152.646 49.3266 152.597 49.5826 152.5 49.8219L149.24 57.9175C149.045 58.4003 148.666 58.7859 148.187 58.99C147.708 59.194 147.167 59.1997 146.684 59.0059Z" fill="#3F3D56"/>
<path d="M140.644 73.9838C140.161 73.7888 139.776 73.4104 139.571 72.9315C139.367 72.4525 139.362 71.9122 139.556 71.4291L142.816 63.3335C142.912 63.0938 143.054 62.8754 143.235 62.6907C143.415 62.5061 143.631 62.3589 143.868 62.2574C144.106 62.156 144.361 62.1024 144.619 62.0997C144.878 62.097 145.134 62.1452 145.373 62.2416C145.613 62.338 145.831 62.4807 146.016 62.6615C146.2 62.8423 146.347 63.0577 146.448 63.2953C146.549 63.5329 146.602 63.7881 146.604 64.0463C146.607 64.3045 146.558 64.5605 146.461 64.7998L143.201 72.8954C143.006 73.3782 142.627 73.7639 142.148 73.9679C141.668 74.1719 141.128 74.1776 140.644 73.9838Z" fill="#3F3D56"/>
<path d="M227.262 108.365L188.048 92.5889C187.244 92.2633 186.602 91.6331 186.263 90.8359C185.923 90.0388 185.912 89.1396 186.234 88.3349L195.645 64.9665C195.971 64.1635 196.602 63.522 197.399 63.1823C198.197 62.8427 199.096 62.8324 199.901 63.1537L239.116 78.9293C239.919 79.2548 240.561 79.8849 240.901 80.6819C241.241 81.479 241.251 82.3781 240.93 83.1827L231.518 106.551C231.192 107.354 230.562 107.996 229.764 108.335C228.967 108.675 228.067 108.686 227.262 108.365ZM199.24 64.7977C198.871 64.6506 198.459 64.6554 198.093 64.8111C197.728 64.9669 197.439 65.2609 197.29 65.6289L187.879 88.9957C187.732 89.3646 187.737 89.7767 187.892 90.1421C188.048 90.5074 188.342 90.7963 188.711 90.9455L227.922 106.72C228.291 106.867 228.704 106.863 229.069 106.707C229.435 106.551 229.724 106.257 229.874 105.889L239.284 82.5222C239.432 82.1533 239.427 81.7412 239.271 81.3759C239.115 81.0106 238.821 80.7218 238.453 80.5726L199.24 64.7977Z" fill="#17282F"/>
<path d="M227.509 93.4942L227.506 93.4933L197.236 81.3156C196.814 81.1446 196.455 80.8479 196.207 80.4658C195.96 80.0837 195.836 79.6347 195.853 79.1799L196.425 65.0101C196.439 64.657 196.538 64.3124 196.713 64.0055C196.888 63.6985 197.134 63.438 197.431 63.2459C197.728 63.0538 198.066 62.9357 198.418 62.9015C198.77 62.8673 199.125 62.918 199.454 63.0494L239.514 79.0866C240.056 79.3036 240.489 79.7258 240.72 80.2611C240.952 80.7964 240.962 81.4014 240.748 81.944L240.879 82.0755L239.623 83.3259L239.623 83.3255L229.891 93.0102C229.585 93.3154 229.196 93.5241 228.773 93.6102C228.349 93.6962 227.909 93.6559 227.509 93.4942Z" fill="#17282F"/>
<path d="M204.768 94.5246L191.305 89.1085C190.974 88.975 190.709 88.7153 190.569 88.3865C190.429 88.0578 190.425 87.687 190.558 87.3556C190.692 87.0242 190.952 86.7593 191.28 86.6192C191.609 86.4791 191.98 86.4752 192.312 86.6084L205.775 92.0245C206.106 92.1581 206.371 92.4178 206.511 92.7465C206.651 93.0752 206.655 93.446 206.522 93.7775C206.388 94.1089 206.128 94.3737 205.8 94.5139C205.471 94.654 205.1 94.6578 204.768 94.5246Z" fill="#3F3D56"/>
<path d="M213.108 90.0422C214.928 90.0422 216.404 88.5675 216.404 86.7484C216.404 84.9293 214.928 83.4546 213.108 83.4546C211.288 83.4546 209.812 84.9293 209.812 86.7484C209.812 88.5675 211.288 90.0422 213.108 90.0422Z" fill="white"/>
<path d="M168.785 253.554L129.571 237.779C128.768 237.453 128.126 236.823 127.786 236.026C127.446 235.229 127.436 234.33 127.757 233.525L137.169 210.156C137.495 209.353 138.125 208.712 138.923 208.372C139.72 208.033 140.62 208.022 141.425 208.344L180.639 224.119C181.442 224.445 182.084 225.075 182.424 225.872C182.764 226.669 182.774 227.568 182.453 228.373L173.041 251.741C172.716 252.544 172.085 253.186 171.288 253.525C170.49 253.865 169.591 253.876 168.785 253.554ZM140.764 209.988C140.395 209.841 139.982 209.845 139.617 210.001C139.251 210.157 138.962 210.451 138.813 210.819L129.402 234.186C129.255 234.555 129.26 234.967 129.416 235.332C129.572 235.697 129.866 235.986 130.234 236.135L169.445 251.91C169.814 252.057 170.227 252.053 170.593 251.897C170.959 251.741 171.248 251.447 171.397 251.079L180.808 227.712C180.955 227.343 180.95 226.931 180.794 226.566C180.639 226.201 180.344 225.912 179.976 225.763L140.764 209.988Z" fill="#17282F"/>
<path d="M169.024 238.685L169.022 238.684L138.751 226.507C138.329 226.336 137.97 226.039 137.723 225.657C137.475 225.275 137.352 224.826 137.369 224.371L137.94 210.201C137.954 209.848 138.053 209.503 138.228 209.196C138.404 208.889 138.65 208.629 138.947 208.437C139.244 208.245 139.582 208.127 139.934 208.092C140.286 208.058 140.641 208.109 140.969 208.24L181.03 224.278C181.571 224.495 182.005 224.917 182.236 225.452C182.467 225.987 182.477 226.592 182.264 227.135L182.395 227.266L181.139 228.517L181.139 228.516L171.407 238.201C171.101 238.506 170.712 238.715 170.288 238.801C169.865 238.887 169.425 238.847 169.024 238.685Z" fill="#17282F"/>
<path d="M146.291 239.716L132.829 234.3C132.497 234.166 132.232 233.907 132.092 233.578C131.952 233.249 131.948 232.878 132.082 232.547C132.215 232.216 132.475 231.951 132.804 231.811C133.133 231.67 133.504 231.667 133.835 231.8L147.298 237.216C147.463 237.282 147.612 237.38 147.739 237.504C147.865 237.627 147.966 237.775 148.035 237.938C148.105 238.101 148.141 238.275 148.143 238.452C148.145 238.629 148.112 238.805 148.046 238.969C147.98 239.133 147.882 239.283 147.758 239.409C147.634 239.536 147.486 239.636 147.323 239.706C147.16 239.775 146.986 239.812 146.808 239.813C146.631 239.815 146.456 239.782 146.291 239.716Z" fill="#3F3D56"/>
<path d="M154.632 235.233C156.452 235.233 157.927 233.758 157.927 231.939C157.927 230.12 156.452 228.645 154.632 228.645C152.811 228.645 151.336 230.12 151.336 231.939C151.336 233.758 152.811 235.233 154.632 235.233Z" fill="white"/>
<path d="M184.32 194.372C204.229 194.372 220.368 178.243 220.368 158.345C220.368 138.448 204.229 122.318 184.32 122.318C164.412 122.318 148.273 138.448 148.273 158.345C148.273 178.243 164.412 194.372 184.32 194.372Z" fill="#8BC63E"/>
<path d="M197.996 180.951L158.782 165.176C157.979 164.85 157.337 164.22 156.997 163.423C156.657 162.626 156.647 161.726 156.968 160.922L166.38 137.553C166.706 136.75 167.336 136.109 168.134 135.769C168.931 135.43 169.831 135.419 170.636 135.741L209.85 151.516C210.653 151.842 211.295 152.472 211.635 153.269C211.975 154.066 211.985 154.965 211.664 155.77L202.252 179.138C201.927 179.941 201.296 180.583 200.499 180.922C199.701 181.262 198.801 181.273 197.996 180.951ZM169.975 137.385C169.606 137.238 169.193 137.242 168.828 137.398C168.462 137.554 168.173 137.848 168.024 138.216L158.613 161.583C158.466 161.951 158.471 162.364 158.627 162.729C158.783 163.094 159.077 163.383 159.445 163.532L198.656 179.307C199.025 179.454 199.438 179.449 199.804 179.294C200.169 179.138 200.459 178.844 200.608 178.476L210.019 155.109C210.166 154.74 210.161 154.328 210.005 153.963C209.849 153.598 209.555 153.309 209.187 153.16L169.975 137.385Z" fill="#3F3D56"/>
<path d="M198.235 166.082L198.233 166.081L167.962 153.904C167.54 153.733 167.181 153.436 166.934 153.054C166.686 152.672 166.563 152.223 166.58 151.768L167.151 137.598C167.165 137.245 167.264 136.9 167.439 136.593C167.615 136.286 167.861 136.026 168.158 135.834C168.454 135.642 168.793 135.524 169.145 135.489C169.497 135.455 169.852 135.506 170.18 135.637L210.241 151.674C210.782 151.891 211.216 152.314 211.447 152.849C211.678 153.384 211.688 153.989 211.475 154.532L211.606 154.663L210.35 155.914L200.617 165.598C200.312 165.903 199.923 166.112 199.499 166.198C199.076 166.284 198.636 166.244 198.235 166.082Z" fill="#17282F"/>
<path d="M175.502 167.112L162.039 161.695C161.708 161.562 161.443 161.302 161.303 160.973C161.163 160.645 161.159 160.274 161.293 159.943C161.426 159.611 161.686 159.346 162.015 159.206C162.344 159.066 162.715 159.062 163.046 159.195L176.509 164.611C176.841 164.745 177.106 165.005 177.246 165.333C177.386 165.662 177.389 166.033 177.256 166.364C177.122 166.696 176.863 166.961 176.534 167.101C176.205 167.241 175.834 167.245 175.502 167.112Z" fill="#3F3D56"/>
<path d="M86.9132 184.717C86.9168 184.028 86.769 183.346 86.4805 182.72C86.1919 182.094 85.7695 181.539 85.2431 181.094C84.7166 180.649 84.0989 180.324 83.4335 180.144C82.768 179.963 82.071 179.93 81.3915 180.048L73.275 165.389L69.2344 173.102L77.5614 185.839C77.8347 186.967 78.5124 187.955 79.4662 188.617C80.4199 189.279 81.5834 189.568 82.7361 189.43C83.8889 189.291 84.9508 188.735 85.7206 187.866C86.4905 186.998 86.9148 185.877 86.9132 184.717Z" fill="#9E616A"/>
<path d="M81.6743 125.508L73.3279 124.923C73.3279 124.923 72.2998 124.783 69.4724 129.264C66.645 133.745 56.9531 156.469 56.9531 156.469L73.9328 181.1L79.4477 175.614L69.5883 155.793L79.0386 142.528L81.6743 125.508Z" fill="#CACACA"/>
<path d="M173.685 152.138C173.125 152.351 172.526 152.439 171.929 152.395C171.332 152.352 170.751 152.178 170.229 151.887C169.706 151.595 169.254 151.192 168.903 150.707C168.553 150.222 168.314 149.665 168.202 149.078L153.805 146.959L158.843 141.323L171.743 144.199C172.743 144.076 173.754 144.325 174.583 144.898C175.412 145.471 176.002 146.327 176.242 147.306C176.481 148.285 176.353 149.317 175.882 150.207C175.41 151.098 174.629 151.785 173.685 152.138Z" fill="#9E616A"/>
<path d="M118.352 309.759H124.505L127.432 286.042L118.352 286.042L118.352 309.759Z" fill="#9E616A"/>
<path d="M116.781 307.751L118.513 307.751L125.274 305.003L128.898 307.751H128.898C130.946 307.751 132.91 308.564 134.358 310.011C135.806 311.459 136.619 313.421 136.62 315.468V315.719L116.782 315.72L116.781 307.751Z" fill="#2F2E41"/>
<path d="M81.2352 309.759H87.3877L90.3145 286.042L81.2344 286.042L81.2352 309.759Z" fill="#9E616A"/>
<path d="M79.6562 307.751L81.388 307.751L88.1489 305.003L91.7726 307.751H91.7731C93.8209 307.751 95.7848 308.564 97.2328 310.011C98.6809 311.459 99.4944 313.421 99.4945 315.468V315.719L79.6566 315.72L79.6562 307.751Z" fill="#2F2E41"/>
<path d="M83.5976 192.966L79.5312 217.464L80.8986 296.213H90.9069L106.283 212.914L117.344 294.844L127.407 294.409L132.429 211.709L127.916 190.6L83.5976 192.966Z" fill="#17282F"/>
<path d="M120.369 120.111L109.658 118.534L107.38 112.624L92.2888 112.603L88.8979 120.32L73.4766 124.973L86.2531 168.839C86.2531 168.839 79.2119 185.14 80.9436 185.21C82.6754 185.28 83.5286 187.755 82.3207 189.055C81.1127 190.356 78.6891 189.528 79.9009 191.504C80.5951 192.573 81.0601 193.774 81.2665 195.032C81.2665 195.032 132.365 205.935 129.534 191.876C129.182 190.128 124.913 165.914 124.913 165.914C124.913 165.914 128.631 161.803 127.042 160.169C125.453 158.535 126.292 141.277 126.292 141.277L120.369 120.111Z" fill="#CACACA"/>
<path d="M118.625 122.027L120.378 120.11L144.197 134.069L164.351 142.102L164.742 149.13L138.567 146.006L120.042 136.953L118.625 122.027Z" fill="#CACACA"/>
<path d="M112 95.6739C112 97.3288 111.674 98.9674 111.04 100.496C110.406 102.025 109.478 103.414 108.307 104.584C107.136 105.755 105.746 106.683 104.216 107.316C102.687 107.949 101.047 108.275 99.3914 108.275C98.3984 108.274 97.409 108.158 96.4425 107.931C94.1396 107.378 92.0389 106.189 90.3807 104.499C88.7226 102.809 87.574 100.686 87.0665 98.3742C86.5589 96.0622 86.7129 93.6541 87.5108 91.4254C88.3088 89.1968 89.7183 87.2378 91.5783 85.7725C93.4382 84.3071 95.6733 83.3948 98.0278 83.1398C100.382 82.8848 102.761 83.2975 104.892 84.3306C107.023 85.3637 108.82 86.9755 110.077 88.9816C111.334 90.9877 112 93.3069 112 95.6739Z" fill="#9E616A"/>
<path d="M102.777 105.892L93.7216 107.638C92.8779 107.866 91.9938 107.903 91.1341 107.745C89.787 107.391 88.8843 106.148 88.1951 104.938C84.9978 99.2718 83.9909 92.6301 85.3651 86.2712C85.6744 84.8675 86.3356 83.2593 87.745 82.9734C88.1544 82.8903 88.6174 82.9232 88.9415 82.6596C89.4187 82.2716 89.2617 81.449 88.7929 81.0507C88.2834 80.6997 87.6827 80.5046 87.0641 80.4891C87.4638 80.0196 87.9584 79.6399 88.5155 79.3751C89.0725 79.1103 89.6793 78.9664 90.296 78.9528L87.8738 77.6075C89.0405 76.7984 90.608 76.8724 91.9843 77.2219C93.3607 77.5715 94.6854 78.1635 96.0993 78.296C97.8745 78.4623 99.6262 77.8922 101.395 77.6719C104.035 77.3857 106.702 77.8622 109.08 79.0448C111.457 80.2274 113.445 82.0665 114.808 84.3441C115.289 85.1037 115.593 85.9611 115.699 86.8535C115.748 87.2998 115.692 87.7513 115.535 88.1721C115.379 88.5929 115.126 88.9714 114.798 89.2775C113.806 90.1112 112.244 89.9886 111.284 90.8577C110.543 91.5276 110.359 92.6094 110.317 93.6067C110.275 94.604 110.323 95.6462 109.895 96.5483C109.467 97.4503 108.351 98.1286 107.459 97.6802C107.42 96.4448 105.995 95.5701 104.785 95.8252C103.575 96.0802 102.681 97.1802 102.333 98.3662C101.984 99.5523 102.088 100.82 102.239 102.046C102.391 103.273 102.588 104.514 102.418 105.739" fill="#2F2E41"/>
<path d="M182.436 162.995C184.256 162.995 185.732 161.52 185.732 159.701C185.732 157.882 184.256 156.407 182.436 156.407C180.616 156.407 179.141 157.882 179.141 159.701C179.141 161.52 180.616 162.995 182.436 162.995Z" fill="#6C63FF"/>
<path d="M253.797 316.312H0.924745C0.801612 316.312 0.683641 316.263 0.596699 316.175C0.509757 316.088 0.460938 315.97 0.460938 315.847C0.460938 315.724 0.509757 315.606 0.596699 315.519C0.683641 315.432 0.801612 315.383 0.924745 315.382H253.797C253.92 315.382 254.038 315.431 254.126 315.518C254.213 315.606 254.262 315.724 254.262 315.847C254.262 315.971 254.213 316.089 254.126 316.176C254.038 316.263 253.92 316.312 253.797 316.312Z" fill="#CACACA"/>
</g>
<defs>
<clipPath id="clip0_1176_1409">
<rect width="300" height="316.312" fill="white" transform="translate(0.460938)"/>
</clipPath>
</defs>
</svg>
