<svg width="33" height="33" viewBox="0 0 33 33" fill="none" xmlns="http://www.w3.org/2000/svg">
<path fill-rule="evenodd" clip-rule="evenodd" d="M7.22471 9.24578C5.96875 10.5003 5.96875 12.5195 5.96875 16.5579C5.96875 20.5963 5.96875 22.6155 7.22471 23.8701C8.48067 25.1247 10.5021 25.1247 14.545 25.1247H18.8331C22.876 25.1247 24.8974 25.1247 26.1534 23.8701C27.4093 22.6155 27.4093 20.5963 27.4093 16.5579C27.4093 12.5195 27.4093 10.5003 26.1534 9.24578C24.8974 7.99121 22.876 7.99121 18.8331 7.99121H14.545C10.5021 7.99121 8.48067 7.99121 7.22471 9.24578ZM23.7389 11.7604C24.0231 12.1012 23.9771 12.6076 23.6359 12.8916L21.2812 14.8516C20.331 15.6426 19.5609 16.2837 18.8811 16.7204C18.1731 17.1753 17.4835 17.4627 16.689 17.4627C15.8946 17.4627 15.205 17.1753 14.4969 16.7204C13.8172 16.2837 13.047 15.6426 12.0968 14.8516L9.74214 12.8916C9.40101 12.6076 9.35492 12.1012 9.6392 11.7604C9.92347 11.4197 10.4305 11.3736 10.7716 11.6576L13.086 13.5841C14.0861 14.4167 14.7805 14.9928 15.3668 15.3694C15.9343 15.734 16.3191 15.8564 16.689 15.8564C17.059 15.8564 17.4438 15.734 18.0113 15.3694C18.5975 14.9928 19.2919 14.4167 20.2921 13.5841L22.6065 11.6576C22.9476 11.3736 23.4546 11.4197 23.7389 11.7604Z" fill="#A1A3A0"/>
</svg>
