<svg width="50" height="49" viewBox="0 0 50 49" fill="none" xmlns="http://www.w3.org/2000/svg">
<path opacity="0.5" d="M28.941 10.5137H21.7783C15.0254 10.5137 11.6489 10.5137 9.55101 12.6569C7.45312 14.8 7.45312 18.2494 7.45312 25.1482C7.45312 32.047 7.45312 35.4964 9.55101 37.6396C11.6489 39.7828 15.0254 39.7828 21.7783 39.7828H28.941C35.6939 39.7828 39.0704 39.7828 41.1683 37.6396C43.2662 35.4964 43.2662 32.047 43.2662 25.1482C43.2662 18.2494 43.2662 14.8 41.1683 12.6569C39.0704 10.5137 35.6939 10.5137 28.941 10.5137Z" fill="#588A16"/>
<path d="M36.9562 18.6993C37.526 18.2249 37.603 17.379 37.1282 16.8099C36.6534 16.2407 35.8065 16.1638 35.2367 16.6381L31.3709 19.8561C29.7003 21.2467 28.5404 22.2091 27.5612 22.8382C26.6133 23.4471 25.9705 23.6516 25.3526 23.6516C24.7347 23.6516 24.0918 23.4471 23.1439 22.8382C22.1647 22.2091 21.0048 21.2467 19.3342 19.8561L15.4684 16.6381C14.8986 16.1638 14.0518 16.2407 13.5769 16.8099C13.1021 17.379 13.1791 18.2249 13.7489 18.6993L17.682 21.9733C19.2692 23.2945 20.5556 24.3653 21.691 25.0947C22.8737 25.8546 24.0256 26.3346 25.3526 26.3346C26.6796 26.3346 27.8314 25.8546 29.0141 25.0947C30.1495 24.3653 31.4359 23.2944 33.0231 21.9732L36.9562 18.6993Z" fill="#588A16"/>
</svg>
