<svg width="42" height="42" viewBox="0 0 42 42" fill="none" xmlns="http://www.w3.org/2000/svg">
<path d="M2.36719 16.6431V35.7293C2.36719 36.4042 2.6353 37.0515 3.11255 37.5288C3.58979 38.006 4.23708 38.2741 4.912 38.2741H36.7222C37.3971 38.2741 38.0444 38.006 38.5217 37.5288C38.9989 37.0515 39.267 36.4042 39.267 35.7293V16.6431" stroke="#222222" stroke-width="1.90862" stroke-linecap="round" stroke-linejoin="round"/>
<path d="M9.68354 13.3159C7.12545 14.0971 4.66941 15.1799 2.36719 16.5415L19.3729 28.2668C19.7976 28.5595 20.3013 28.7163 20.8171 28.7163C21.3329 28.7163 21.8366 28.5595 22.2613 28.2668L39.267 16.5415C36.9648 15.1799 34.5088 14.0971 31.9507 13.3159" stroke="#222222" stroke-width="1.90862" stroke-linecap="round" stroke-linejoin="round"/>
<path d="M9.6875 21.5864V4.95599C9.6875 4.44979 9.88859 3.96432 10.2465 3.60639C10.6045 3.24845 11.0899 3.04736 11.5961 3.04736H30.046C30.5522 3.04736 31.0377 3.24845 31.3956 3.60639C31.7536 3.96432 31.9546 4.44979 31.9546 4.95599V21.5801L22.2653 28.2666C21.8405 28.5594 21.3369 28.7161 20.8211 28.7161C20.3052 28.7161 19.8016 28.5594 19.3769 28.2666L9.69386 21.5864" stroke="#222222" stroke-width="1.90862" stroke-linecap="round" stroke-linejoin="round"/>
<path d="M26.8613 8.70361H14.7734" stroke="#8BC63E" stroke-width="1.90862" stroke-linecap="round" stroke-linejoin="round"/>
<path d="M20.8174 18.5068H14.7734" stroke="#8BC63E" stroke-width="1.90862" stroke-linecap="round" stroke-linejoin="round"/>
<path d="M26.8613 13.6084H14.7734" stroke="#8BC63E" stroke-width="1.90862" stroke-linecap="round" stroke-linejoin="round"/>
<path d="M16.4778 26.2822L3.1875 37.6067" stroke="#222222" stroke-width="1.90862" stroke-linecap="round" stroke-linejoin="round"/>
<path d="M25.125 26.2822L38.4535 37.6067" stroke="#222222" stroke-width="1.90862" stroke-linecap="round" stroke-linejoin="round"/>
</svg>
