<svg width="18" height="18" viewBox="0 0 18 18" fill="none" xmlns="http://www.w3.org/2000/svg">
<path d="M12.9984 10.6C13.4403 10.6 13.7984 10.2419 13.7984 9.80005C13.7984 9.35822 13.4403 9.00005 12.9984 9.00005C12.5566 9.00005 12.1984 9.35822 12.1984 9.80005C12.1984 10.2419 12.5566 10.6 12.9984 10.6Z" fill="black" fill-opacity="0.59"/>
<path d="M12.9984 13.8C13.4403 13.8 13.7984 13.4419 13.7984 13C13.7984 12.5582 13.4403 12.2 12.9984 12.2C12.5566 12.2 12.1984 12.5582 12.1984 13C12.1984 13.4419 12.5566 13.8 12.9984 13.8Z" fill="black" fill-opacity="0.59"/>
<path d="M9.79844 9.80005C9.79844 10.2419 9.44026 10.6 8.99844 10.6C8.55661 10.6 8.19844 10.2419 8.19844 9.80005C8.19844 9.35822 8.55661 9.00005 8.99844 9.00005C9.44026 9.00005 9.79844 9.35822 9.79844 9.80005Z" fill="black" fill-opacity="0.59"/>
<path d="M9.79844 13C9.79844 13.4419 9.44026 13.8 8.99844 13.8C8.55661 13.8 8.19844 13.4419 8.19844 13C8.19844 12.5582 8.55661 12.2 8.99844 12.2C9.44026 12.2 9.79844 12.5582 9.79844 13Z" fill="black" fill-opacity="0.59"/>
<path d="M4.99844 10.6C5.44027 10.6 5.79844 10.2419 5.79844 9.80005C5.79844 9.35822 5.44027 9.00005 4.99844 9.00005C4.55661 9.00005 4.19844 9.35822 4.19844 9.80005C4.19844 10.2419 4.55661 10.6 4.99844 10.6Z" fill="black" fill-opacity="0.59"/>
<path d="M4.99844 13.8C5.44027 13.8 5.79844 13.4419 5.79844 13C5.79844 12.5582 5.44027 12.2 4.99844 12.2C4.55661 12.2 4.19844 12.5582 4.19844 13C4.19844 13.4419 4.55661 13.8 4.99844 13.8Z" fill="black" fill-opacity="0.59"/>
<path fill-rule="evenodd" clip-rule="evenodd" d="M4.99844 0.800049C5.32981 0.800049 5.59844 1.06868 5.59844 1.40005V2.01022C6.12804 2.00004 6.7115 2.00004 7.3532 2.00005H10.6436C11.2853 2.00004 11.8688 2.00004 12.3984 2.01022V1.40005C12.3984 1.06868 12.6671 0.800049 12.9984 0.800049C13.3298 0.800049 13.5984 1.06868 13.5984 1.40005V2.06172C13.8064 2.07757 14.0033 2.0975 14.1897 2.12256C15.1276 2.24866 15.8868 2.51435 16.4854 3.11304C17.0841 3.71173 17.3498 4.47089 17.4759 5.40883C17.5985 6.32019 17.5984 7.48469 17.5984 8.95488V10.6452C17.5984 12.1154 17.5985 13.2799 17.4759 14.1913C17.3498 15.1292 17.0841 15.8884 16.4854 16.4871C15.8868 17.0857 15.1276 17.3514 14.1897 17.4775C13.2783 17.6001 12.1138 17.6001 10.6436 17.6H7.35331C5.88312 17.6001 4.71858 17.6001 3.80722 17.4775C2.86928 17.3514 2.11012 17.0857 1.51143 16.4871C0.912742 15.8884 0.647048 15.1292 0.520946 14.1913C0.398415 13.2799 0.398425 12.1154 0.398438 10.6452V8.95491C0.398425 7.48471 0.398415 6.3202 0.520946 5.40883C0.647048 4.47089 0.912742 3.71173 1.51143 3.11304C2.11012 2.51435 2.86928 2.24866 3.80722 2.12256C3.99356 2.0975 4.19048 2.07757 4.39844 2.06172V1.40005C4.39844 1.06868 4.66707 0.800049 4.99844 0.800049ZM3.96712 3.31186C3.16225 3.42007 2.69853 3.623 2.35996 3.96157C2.02139 4.30014 1.81846 4.76386 1.71024 5.56873C1.69192 5.70503 1.6766 5.84854 1.66378 6.00005H16.3331C16.3203 5.84854 16.305 5.70504 16.2866 5.56873C16.1784 4.76386 15.9755 4.30014 15.6369 3.96157C15.2983 3.623 14.8346 3.42007 14.0298 3.31186C13.2076 3.20132 12.1239 3.20005 10.5984 3.20005H7.39844C5.87298 3.20005 4.78925 3.20132 3.96712 3.31186ZM1.59844 9.00005C1.59844 8.31684 1.59869 7.72223 1.60891 7.20005H16.388C16.3982 7.72223 16.3984 8.31684 16.3984 9.00005V10.6C16.3984 12.1255 16.3972 13.2092 16.2866 14.0314C16.1784 14.8362 15.9755 15.3 15.6369 15.6385C15.2983 15.9771 14.8346 16.18 14.0298 16.2882C13.2076 16.3988 12.1239 16.4 10.5984 16.4H7.39844C5.87298 16.4 4.78925 16.3988 3.96712 16.2882C3.16225 16.18 2.69853 15.9771 2.35996 15.6385C2.02139 15.3 1.81846 14.8362 1.71024 14.0314C1.59971 13.2092 1.59844 12.1255 1.59844 10.6V9.00005Z" fill="black" fill-opacity="0.59"/>
</svg>
