<svg width="34" height="34" viewBox="0 0 34 34" fill="none" xmlns="http://www.w3.org/2000/svg">
<g clip-path="url(#clip0_5652_701)">
<path d="M23.5455 25.6415C22.0145 25.6415 20.7869 26.8691 20.7869 28.4001C20.7869 29.1317 21.0775 29.8334 21.5949 30.3507C22.1122 30.8681 22.8139 31.1587 23.5455 31.1587C24.2772 31.1587 24.9788 30.8681 25.4962 30.3507C26.0135 29.8334 26.3041 29.1317 26.3041 28.4001C26.3041 27.6685 26.0135 26.9668 25.4962 26.4495C24.9788 25.9321 24.2772 25.6415 23.5455 25.6415ZM1.47656 3.57251V6.33113H4.23518L9.2007 16.8001L7.32484 20.1794C7.11794 20.5656 6.9938 21.0208 6.9938 21.5035C6.9938 22.2352 7.28444 22.9368 7.80178 23.4542C8.31913 23.9715 9.02079 24.2622 9.75242 24.2622H26.3041V21.5035H10.3317C10.2403 21.5035 10.1526 21.4672 10.0879 21.4025C10.0232 21.3379 9.98691 21.2502 9.98691 21.1587C9.98691 21.0898 10.0007 21.0346 10.0283 20.9932L11.2697 18.7449H21.5455C22.58 18.7449 23.4904 18.1656 23.9593 17.3242L28.8973 8.4001C28.9938 8.17941 29.0628 7.94492 29.0628 7.71044C29.0628 7.34462 28.9175 6.99379 28.6588 6.73512C28.4001 6.47645 28.0493 6.33113 27.6835 6.33113H7.28346L5.98691 3.57251M9.75242 25.6415C8.22139 25.6415 6.9938 26.8691 6.9938 28.4001C6.9938 29.1317 7.28444 29.8334 7.80178 30.3507C8.31913 30.8681 9.02079 31.1587 9.75242 31.1587C10.4841 31.1587 11.1857 30.8681 11.7031 30.3507C12.2204 29.8334 12.511 29.1317 12.511 28.4001C12.511 27.6685 12.2204 26.9668 11.7031 26.4495C11.1857 25.9321 10.4841 25.6415 9.75242 25.6415Z" fill="white"/>
<rect x="20.7969" y="0.814087" width="11.0345" height="11.0345" rx="5.51724" fill="#FF0000"/>
<path d="M27.517 3.49547H24.3308V2.84168H28.2287V3.43754L25.7791 8.88306H25.0425L27.517 3.49547Z" fill="white"/>
</g>
<defs>
<clipPath id="clip0_5652_701">
<rect width="33.1035" height="33.1034" fill="white" transform="translate(0.101562 0.813965)"/>
</clipPath>
</defs>
</svg>
