<svg width="98" height="82" viewBox="0 0 98 82" fill="none" xmlns="http://www.w3.org/2000/svg">
<path d="M43.3071 19.5667C46.7637 14.2484 53.6018 6.5894 57.6621 2.28707C58.4281 1.47547 59.5667 1.04774 60.6166 1.42598C63.4995 2.46459 63.8594 4.62614 63.6151 5.72527C78.3923 -0.460538 90.678 6.58441 94.9737 10.8801C100.129 16.035 94.8306 20.1875 91.5372 21.6194C75.0417 29.1798 60.3217 20.4738 55.0237 15.1758L50.2051 23.701C49.8724 24.2896 50.3281 25.0179 51.0042 25.0162C71.2546 24.9647 74.4729 43.4806 73.4952 52.978C71.7769 67.7552 56.742 76.6043 49.4393 79.1818C28.4763 85.3676 12.3531 71.7359 6.91184 64.1468C-5.80344 43.1838 4.47761 26.4878 11.2075 20.7602C26.3262 7.57162 37.3549 13.9292 41.7573 19.6112C42.1508 20.1192 42.957 20.1054 43.3071 19.5667Z" fill="#8BC63E" stroke="#8BC63E" stroke-width="0.85914"/>
<path d="M88.2775 14.1025C80.9293 7.56442 69.6534 9.68225 63.6957 12.017C63.0791 12.2586 63.0081 13.0738 63.5642 13.4334C74.9285 20.7823 84.2282 18.0748 88.2142 15.3132C88.6284 15.0263 88.6539 14.4374 88.2775 14.1025Z" fill="white"/>
<path d="M53.3055 33.2178C51.0648 33.2178 48.1882 33.4563 46.0974 33.4001C44.9314 33.3688 43.9516 32.6408 43.3095 31.6671C41.6025 29.0786 39.8757 27.1035 38.1995 25.5968C31.6702 19.7278 21.1183 21.2912 15.4353 27.9831C12.9048 30.9627 11.1771 34.1532 10.3485 36.2248C8.68674 40.7568 8.79031 45.5101 9.69588 49.7915C11.5923 58.7574 18.4263 65.9905 26.8692 69.5543C34.7437 72.8782 40.7357 72.4353 44.2845 71.4495C64.5602 66.2947 66.7654 51.8325 65.3335 45.2457C64.0447 34.9361 57.6011 33.2178 53.3055 33.2178Z" fill="white"/>
</svg>
