<svg width="53" height="54" viewBox="0 0 53 54" fill="none" xmlns="http://www.w3.org/2000/svg">
<path d="M29.2215 0.0830078C32.2031 0.0909588 33.7165 0.106861 35.0231 0.143965L35.5372 0.162518C36.1309 0.18372 36.7166 0.210223 37.4243 0.242027C40.2442 0.374544 42.1684 0.819799 43.8566 1.47443C45.6058 2.14761 47.0794 3.05933 48.553 4.53026C49.9012 5.85471 50.9441 7.45747 51.6088 9.22664C52.2635 10.9149 52.7087 12.839 52.8412 15.6616C52.873 16.3666 52.8995 16.9523 52.9207 17.5487L52.9366 18.0628C52.9764 19.3668 52.9923 20.8801 52.9976 23.8617L53.0003 25.8389V29.3108C53.0067 31.244 52.9864 33.1771 52.9393 35.1097L52.9234 35.6239C52.9022 36.2202 52.8757 36.8059 52.8439 37.5109C52.7114 40.3335 52.2608 42.255 51.6088 43.9459C50.9441 45.7151 49.9012 47.3179 48.553 48.6423C47.2286 49.9905 45.6258 51.0334 43.8566 51.6981C42.1684 52.3528 40.2442 52.798 37.4243 52.9305L35.5372 53.01L35.0231 53.026C33.7165 53.0631 32.2031 53.0816 29.2215 53.0869L27.2444 53.0896H23.7751C21.841 53.0964 19.907 53.0761 17.9735 53.0286L17.4594 53.0127C16.8302 52.9889 16.2012 52.9615 15.5723 52.9305C12.7524 52.798 10.8282 52.3528 9.13733 51.6981C7.36911 51.0331 5.76728 49.9902 4.4436 48.6423C3.09443 47.3181 2.05064 45.7153 1.38512 43.9459C0.730487 42.2577 0.285231 40.3335 0.152715 37.5109L0.0732048 35.6239L0.0599535 35.1097C0.0110974 33.1772 -0.010991 31.244 -0.006305 29.3108V23.8617C-0.0136408 21.9286 0.00579697 19.9954 0.0520024 18.0628L0.0705546 17.5487C0.0917573 16.9523 0.11826 16.3666 0.150064 15.6616C0.282581 12.839 0.727836 10.9175 1.38247 9.22664C2.04954 7.45675 3.09517 5.85393 4.44625 4.53026C5.76917 3.1827 7.37006 2.13986 9.13733 1.47443C10.8282 0.819799 12.7497 0.374544 15.5723 0.242027C16.2773 0.210223 16.8657 0.18372 17.4594 0.162518L17.9735 0.146615C19.9061 0.0995265 21.8393 0.0792054 23.7724 0.0856579L29.2215 0.0830078ZM26.497 13.3346C22.9824 13.3346 19.6118 14.7308 17.1267 17.216C14.6415 19.7011 13.2453 23.0717 13.2453 26.5863C13.2453 30.1008 14.6415 33.4714 17.1267 35.9566C19.6118 38.4418 22.9824 39.8379 26.497 39.8379C30.0115 39.8379 33.3821 38.4418 35.8673 35.9566C38.3525 33.4714 39.7486 30.1008 39.7486 26.5863C39.7486 23.0717 38.3525 19.7011 35.8673 17.216C33.3821 14.7308 30.0115 13.3346 26.497 13.3346ZM26.497 18.6353C27.5411 18.6351 28.5751 18.8406 29.5398 19.24C30.5045 19.6394 31.3811 20.225 32.1196 20.9632C32.858 21.7013 33.4438 22.5778 33.8435 23.5424C34.2433 24.5069 34.4491 25.5408 34.4493 26.585C34.4495 27.6291 34.244 28.663 33.8446 29.6278C33.4451 30.5925 32.8596 31.4691 32.1214 32.2075C31.3832 32.946 30.5068 33.5318 29.5422 33.9315C28.5776 34.3313 27.5438 34.5371 26.4996 34.5373C24.3909 34.5373 22.3685 33.6996 20.8774 32.2085C19.3863 30.7174 18.5486 28.695 18.5486 26.5863C18.5486 24.4776 19.3863 22.4552 20.8774 20.9641C22.3685 19.473 24.3909 18.6353 26.4996 18.6353M40.4138 9.35915C39.5352 9.35915 38.6926 9.70819 38.0713 10.3295C37.45 10.9508 37.1009 11.7934 37.1009 12.6721C37.1009 13.5507 37.45 14.3934 38.0713 15.0146C38.6926 15.6359 39.5352 15.985 40.4138 15.985C41.2925 15.985 42.1351 15.6359 42.7564 15.0146C43.3777 14.3934 43.7268 13.5507 43.7268 12.6721C43.7268 11.7934 43.3777 10.9508 42.7564 10.3295C42.1351 9.70819 41.2925 9.35915 40.4138 9.35915Z" fill="#A1A3A0"/>
</svg>
