<svg width="23" height="22" viewBox="0 0 23 22" fill="none" xmlns="http://www.w3.org/2000/svg">
<path fill-rule="evenodd" clip-rule="evenodd" d="M8.70646 2.18191C8.45433 2.26179 8.20533 2.35257 7.96018 2.45411C6.83792 2.91897 5.8182 3.60032 4.95926 4.45926C4.10032 5.3182 3.41897 6.33792 2.95411 7.46018C2.5852 8.35081 2.35837 9.2922 2.28045 10.25H6.76094C6.79294 9.1541 6.89498 8.0741 7.06457 7.05057C7.2725 5.79558 7.57972 4.63914 7.97522 3.65039C8.19114 3.11057 8.4351 2.61641 8.70646 2.18191ZM11.5 0.25C10.0883 0.25 8.6904 0.528057 7.38615 1.06829C6.0819 1.60853 4.89683 2.40037 3.8986 3.3986C2.90037 4.39683 2.10853 5.5819 1.5683 6.88615C1.02806 8.1904 0.75 9.58829 0.75 11C0.75 12.4117 1.02806 13.8096 1.56829 15.1138C2.10853 16.4181 2.90037 17.6032 3.8986 18.6014C4.89683 19.5996 6.0819 20.3915 7.38615 20.9317C8.6904 21.4719 10.0883 21.75 11.5 21.75C12.9117 21.75 14.3096 21.4719 15.6138 20.9317C16.9181 20.3915 18.1032 19.5996 19.1014 18.6014C20.0996 17.6032 20.8915 16.4181 21.4317 15.1138C21.9719 13.8096 22.25 12.4117 22.25 11C22.25 9.58829 21.9719 8.1904 21.4317 6.88615C20.8915 5.5819 20.0996 4.39683 19.1014 3.3986C18.1032 2.40037 16.9181 1.60853 15.6138 1.0683C14.3096 0.528057 12.9117 0.25 11.5 0.25ZM11.5 1.75C11.2387 1.75 10.9012 1.87579 10.5088 2.2822C10.1134 2.69161 9.71762 3.33326 9.36793 4.20747C9.02056 5.07589 8.7385 6.12424 8.54439 7.29576C8.38866 8.23569 8.29316 9.23313 8.26162 10.25L14.7384 10.25C14.7068 9.23313 14.6113 8.23569 14.4556 7.29576C14.2615 6.12424 13.9794 5.0759 13.6321 4.20748C13.2824 3.33326 12.8866 2.69161 12.4912 2.2822C12.0988 1.87579 11.7613 1.75 11.5 1.75ZM16.2391 10.25C16.2071 9.1541 16.105 8.07411 15.9354 7.05057C15.7275 5.79558 15.4203 4.63914 15.0248 3.65039C14.8089 3.11057 14.5649 2.61641 14.2935 2.18191C14.5457 2.26179 14.7947 2.35257 15.0398 2.45411C16.1621 2.91897 17.1818 3.60032 18.0407 4.45926C18.8997 5.31821 19.581 6.33792 20.0459 7.46018C20.4148 8.35082 20.6416 9.2922 20.7195 10.25H16.2391ZM14.7384 11.75L8.26162 11.75C8.29316 12.7669 8.38866 13.7643 8.54439 14.7042C8.7385 15.8758 9.02056 16.9241 9.36793 17.7925C9.71762 18.6667 10.1134 19.3084 10.5088 19.7178C10.9012 20.1242 11.2387 20.25 11.5 20.25C11.7613 20.25 12.0988 20.1242 12.4912 19.7178C12.8866 19.3084 13.2824 18.6667 13.6321 17.7925C13.9794 16.9241 14.2615 15.8758 14.4556 14.7042C14.6113 13.7643 14.7068 12.7669 14.7384 11.75ZM14.2935 19.8181C14.5649 19.3836 14.8089 18.8894 15.0248 18.3496C15.4203 17.3609 15.7275 16.2044 15.9354 14.9494C16.105 13.9259 16.2071 12.8459 16.2391 11.75H20.7195C20.6416 12.7078 20.4148 13.6492 20.0459 14.5398C19.581 15.6621 18.8997 16.6818 18.0407 17.5407C17.1818 18.3997 16.1621 19.081 15.0398 19.5459C14.7947 19.6474 14.5457 19.7382 14.2935 19.8181ZM8.70646 19.8181C8.4351 19.3836 8.19114 18.8894 7.97521 18.3496C7.57971 17.3609 7.2725 16.2044 7.06457 14.9494C6.89498 13.9259 6.79294 12.8459 6.76094 11.75H2.28045C2.35837 12.7078 2.5852 13.6492 2.95411 14.5398C3.41897 15.6621 4.10032 16.6818 4.95926 17.5407C5.8182 18.3997 6.83792 19.081 7.96018 19.5459C8.20533 19.6474 8.45433 19.7382 8.70646 19.8181Z" fill="black"/>
</svg>
