<svg width="34" height="34" viewBox="0 0 34 34" fill="none" xmlns="http://www.w3.org/2000/svg">
<path fill-rule="evenodd" clip-rule="evenodd" d="M11.0372 10.4663C11.0372 9.00307 11.6185 7.59974 12.6531 6.56506C13.6878 5.53038 15.0912 4.9491 16.5544 4.9491C18.0177 4.9491 19.421 5.53038 20.4557 6.56506C21.4904 7.59974 22.0717 9.00307 22.0717 10.4663C22.0717 11.9296 21.4904 13.3329 20.4557 14.3676C19.421 15.4023 18.0177 15.9836 16.5544 15.9836C15.0912 15.9836 13.6878 15.4023 12.6531 14.3676C11.6185 13.3329 11.0372 11.9296 11.0372 10.4663ZM11.0372 18.7422C9.2081 18.7422 7.45393 19.4688 6.16058 20.7622C4.86722 22.0555 4.14063 23.8097 4.14062 25.6387C4.14063 26.7362 4.57658 27.7887 5.3526 28.5647C6.12861 29.3407 7.18111 29.7767 8.27856 29.7767H24.8303C25.9277 29.7767 26.9802 29.3407 27.7562 28.5647C28.5322 27.7887 28.9682 26.7362 28.9682 25.6387C28.9682 23.8097 28.2416 22.0555 26.9483 20.7622C25.6549 19.4688 23.9007 18.7422 22.0717 18.7422H11.0372Z" fill="white"/>
</svg>
