<svg width="29" height="28" viewBox="0 0 29 28" fill="none" xmlns="http://www.w3.org/2000/svg">
<path d="M28.2277 13.8121C28.2277 21.4386 22.0451 27.6212 14.4185 27.6212C6.79194 27.6212 0.609375 21.4386 0.609375 13.8121C0.609375 6.18549 6.79194 0.00292969 14.4185 0.00292969C22.0451 0.00292969 28.2277 6.18549 28.2277 13.8121Z" fill="#8BC63E"/>
<path fill-rule="evenodd" clip-rule="evenodd" d="M14.4185 7.25273C14.9905 7.25273 15.4542 7.71642 15.4542 8.28841V13.3831L18.6031 16.532C19.0076 16.9365 19.0076 17.5922 18.6031 17.9967C18.1987 18.4012 17.5429 18.4012 17.1385 17.9967L13.6862 14.5444C13.4919 14.3502 13.3828 14.0868 13.3828 13.8121V8.28841C13.3828 7.71642 13.8465 7.25273 14.4185 7.25273Z" fill="white"/>
</svg>
