<svg width="17" height="17" viewBox="0 0 17 17" fill="none" xmlns="http://www.w3.org/2000/svg">
<path d="M16.5249 8.13402C16.5249 12.5851 12.9166 16.1933 8.46557 16.1933C4.01453 16.1933 0.40625 12.5851 0.40625 8.13402C0.40625 3.68299 4.01453 0.074707 8.46557 0.074707C12.9166 0.074707 16.5249 3.68299 16.5249 8.13402Z" fill="#17282F"/>
<path fill-rule="evenodd" clip-rule="evenodd" d="M8.46557 4.30585C8.79939 4.30585 9.07002 4.57647 9.07002 4.9103V7.88365L10.9078 9.72144C11.1439 9.95749 11.1439 10.3402 10.9078 10.5763C10.6718 10.8123 10.289 10.8123 10.053 10.5763L8.03816 8.56143C7.9248 8.44808 7.86112 8.29433 7.86112 8.13402V4.9103C7.86112 4.57647 8.13174 4.30585 8.46557 4.30585Z" fill="white"/>
</svg>
