<svg width="17" height="18" viewBox="0 0 17 18" fill="none" xmlns="http://www.w3.org/2000/svg">
<path d="M5.98642 3.56412C7.0188 1.71213 7.53499 0.786133 8.30672 0.786133C9.07846 0.786133 9.59465 1.71213 10.627 3.56412L10.8941 4.04325C11.1875 4.56953 11.3342 4.83267 11.5629 5.00629C11.7916 5.17991 12.0764 5.24436 12.6461 5.37326L13.1648 5.49061C15.1695 5.94421 16.1719 6.171 16.4104 6.93789C16.6489 7.70478 15.9655 8.50387 14.5988 10.1021L14.2452 10.5155C13.8568 10.9697 13.6627 11.1968 13.5753 11.4777C13.4879 11.7586 13.5173 12.0616 13.576 12.6675L13.6295 13.2192C13.8361 15.3515 13.9394 16.4177 13.3151 16.8916C12.6907 17.3656 11.7522 16.9335 9.87514 16.0692L9.38953 15.8456C8.85613 15.6 8.58943 15.4772 8.30672 15.4772C8.02402 15.4772 7.75732 15.6 7.22392 15.8456L6.73831 16.0692C4.86125 16.9335 3.92273 17.3656 3.29838 16.8916C2.67403 16.4177 2.77734 15.3515 2.98397 13.2192L3.03743 12.6675C3.09615 12.0616 3.12551 11.7586 3.03815 11.4777C2.95079 11.1968 2.7566 10.9697 2.36822 10.5155L2.01464 10.1021C0.647927 8.50388 -0.0354292 7.70478 0.203051 6.93789C0.441531 6.171 1.44391 5.94421 3.44866 5.49061L3.96732 5.37326C4.53701 5.24436 4.82185 5.17991 5.05056 5.00629C5.27927 4.83267 5.42596 4.56953 5.71933 4.04325L5.98642 3.56412Z" fill="#A1A3A0"/>
</svg>
