<svg width="18" height="18" viewBox="0 0 18 18" fill="none" xmlns="http://www.w3.org/2000/svg">
<path d="M6.61923 3.56412C7.65161 1.71213 8.1678 0.786133 8.93954 0.786133C9.71127 0.786133 10.2275 1.71213 11.2598 3.56412L11.5269 4.04325C11.8203 4.56953 11.967 4.83267 12.1957 5.00629C12.4244 5.17991 12.7093 5.24436 13.2789 5.37326L13.7976 5.49061C15.8024 5.94421 16.8047 6.171 17.0432 6.93789C17.2817 7.70478 16.5983 8.50387 15.2316 10.1021L14.878 10.5155C14.4897 10.9697 14.2955 11.1968 14.2081 11.4777C14.1208 11.7586 14.1501 12.0616 14.2088 12.6675L14.2623 13.2192C14.4689 15.3515 14.5722 16.4177 13.9479 16.8916C13.3235 17.3656 12.385 16.9335 10.508 16.0692L10.0223 15.8456C9.48894 15.6 9.22224 15.4772 8.93954 15.4772C8.65683 15.4772 8.39013 15.6 7.85674 15.8456L7.37112 16.0692C5.49407 16.9335 4.55554 17.3656 3.93119 16.8916C3.30684 16.4177 3.41016 15.3515 3.61679 13.2192L3.67024 12.6675C3.72896 12.0616 3.75832 11.7586 3.67096 11.4777C3.5836 11.1968 3.38941 10.9697 3.00103 10.5155L2.64745 10.1021C1.28074 8.50388 0.597383 7.70478 0.835863 6.93789C1.07434 6.171 2.07672 5.94421 4.08148 5.49061L4.60013 5.37326C5.16982 5.24436 5.45467 5.17991 5.68338 5.00629C5.91209 4.83267 6.05877 4.56953 6.35214 4.04325L6.61923 3.56412Z" fill="#F2C925"/>
</svg>
