<svg width="64" height="64" viewBox="0 0 64 64" fill="none" xmlns="http://www.w3.org/2000/svg">
<path d="M32.1224 0.334961C25.8357 0.334961 19.6901 2.19921 14.4628 5.69195C9.23555 9.1847 5.1614 14.1491 2.75555 19.9573C0.34971 25.7655 -0.279769 32.1567 0.94672 38.3227C2.17321 44.4887 5.20058 50.1525 9.646 54.5979C14.0914 59.0433 19.7552 62.0707 25.9212 63.2972C32.0872 64.5237 38.4784 63.8942 44.2866 61.4883C50.0948 59.0825 55.0592 55.0083 58.5519 49.7811C62.0447 44.5538 63.9089 38.4082 63.9089 32.1215C63.9 23.6939 60.5483 15.614 54.5891 9.65484C48.6299 3.69564 40.55 0.343861 32.1224 0.334961ZM49.2382 34.5666H32.1224C31.474 34.5666 30.852 34.309 30.3935 33.8504C29.9349 33.3919 29.6773 32.7699 29.6773 32.1215V15.0056C29.6773 14.3572 29.9349 13.7352 30.3935 13.2767C30.852 12.8181 31.474 12.5605 32.1224 12.5605C32.7709 12.5605 33.3929 12.8181 33.8514 13.2767C34.31 13.7352 34.5676 14.3572 34.5676 15.0056V29.6763H49.2382C49.8867 29.6763 50.5087 29.9339 50.9672 30.3925C51.4258 30.851 51.6834 31.473 51.6834 32.1215C51.6834 32.7699 51.4258 33.3919 50.9672 33.8504C50.5087 34.309 49.8867 34.5666 49.2382 34.5666Z" fill="#8BC63E"/>
</svg>
