<svg width="33" height="32" viewBox="0 0 33 32" fill="none" xmlns="http://www.w3.org/2000/svg">
<rect x="0.734375" y="0.26828" width="31.4634" height="31.4634" rx="4.71951" fill="#8BC63E" fill-opacity="0.2"/>
<path d="M8.09384 20.7589L11.8367 24.4184C13.2482 25.7985 13.954 26.4885 14.831 26.4885C15.3699 26.4885 15.8442 26.2279 16.4573 25.7068C16.8326 25.3878 17.0202 25.2283 17.0285 24.9972C17.0368 24.7662 16.8517 24.5845 16.4816 24.2212L8.18581 16.0774C7.93378 15.83 7.80777 15.7063 7.66903 15.6717C7.57477 15.6483 7.48301 15.6506 7.39007 15.6789C7.25327 15.7204 7.13155 15.8527 6.88812 16.1174C6.28042 16.7781 5.97656 17.2686 5.97656 17.8313C5.97656 18.6887 6.68232 19.3788 8.09384 20.7589Z" fill="#8BC63E"/>
<path d="M24.9367 17.4653C27.624 14.8379 27.624 10.578 24.9367 7.95058C22.2495 5.32316 17.8925 5.32316 15.2053 7.95058L14.7172 8.42778C14.2775 6.72068 12.9694 5.49029 11.4439 5.51322C9.58535 5.54117 8.10786 7.41888 8.14385 9.70722L8.10894 13.3332C8.10662 13.5621 8.10546 13.6766 8.14634 13.7754C8.18723 13.8743 8.26741 13.953 8.42778 14.1104L17.6446 23.1584C17.9908 23.4983 18.164 23.6682 18.378 23.6684C18.5921 23.6686 18.7656 23.499 19.1125 23.1598L24.9367 17.4653Z" fill="#8BC63E"/>
</svg>
