<svg width="70" height="54" viewBox="0 0 70 54" fill="none" xmlns="http://www.w3.org/2000/svg">
<path d="M68.6884 47.0639L52.1197 3.30017C51.5306 1.74383 50.247 0.746834 48.8341 0.746834H37.2672L37.5576 3.91423C37.6168 4.55975 37.1771 5.12321 36.6141 5.12321H33.1579C32.5949 5.12321 32.1552 4.55975 32.2144 3.91423L32.5048 0.746834H20.9379C19.5239 0.746834 18.2402 1.74383 17.6511 3.30017L1.08241 47.0639C-0.0139524 49.9619 1.73549 53.2633 4.37032 53.2633H27.701L28.923 39.9044C29.0249 38.7912 29.838 37.946 30.8087 37.946H38.9633C39.934 37.946 40.7471 38.7912 40.849 39.9044L42.071 53.2633H65.4017C68.0365 53.2633 69.786 49.9619 68.6884 47.0639ZM31.6147 10.4788C31.6393 10.2099 31.7493 9.96106 31.9235 9.78024C32.0978 9.59942 32.3238 9.49944 32.5582 9.49958H37.215C37.6998 9.49958 38.1075 9.92217 38.1585 10.4788L38.7037 16.4389C38.7926 17.4085 38.1336 18.2523 37.2897 18.2523H32.4847C31.6396 18.2523 30.9818 17.4085 31.0707 16.4389L31.6147 10.4788ZM38.1621 33.5696H31.6088C30.4828 33.5696 29.6045 32.4441 29.723 31.1517L30.3239 24.5871C30.4259 23.4739 31.239 22.6287 32.2097 22.6287H37.5611C38.5319 22.6287 39.345 23.4739 39.4469 24.5871L40.0478 31.1517C40.1663 32.4441 39.2881 33.5696 38.1621 33.5696Z" fill="#8BC63E"/>
</svg>
