<svg width="60" height="48" viewBox="0 0 60 48" fill="none" xmlns="http://www.w3.org/2000/svg">
<path fill-rule="evenodd" clip-rule="evenodd" d="M4.21881 4.183C0.78125 7.58475 0.78125 13.0598 0.78125 24.0098C0.78125 34.9599 0.78125 40.4349 4.21881 43.8367C7.65636 47.2384 13.189 47.2384 24.2544 47.2384H35.9909C47.0562 47.2384 52.5889 47.2384 56.0264 43.8367C59.464 40.4349 59.464 34.9599 59.464 24.0098C59.464 13.0598 59.464 7.58475 56.0264 4.183C52.5889 0.78125 47.0562 0.78125 35.9909 0.78125H24.2544C13.189 0.78125 7.65636 0.78125 4.21881 4.183ZM49.418 11.0014C50.1961 11.9254 50.0699 13.2985 49.1362 14.0685L42.6915 19.3832C40.0908 21.5279 37.9828 23.2663 36.1224 24.4504C34.1844 25.6838 32.2971 26.463 30.1226 26.463C27.9482 26.463 26.0608 25.6838 24.1228 24.4504C22.2624 23.2663 20.1545 21.528 17.5538 19.3832L11.109 14.0685C10.1753 13.2985 10.0492 11.9254 10.8273 11.0014C11.6053 10.0775 12.9929 9.95265 13.9266 10.7226L20.2611 15.9464C22.9985 18.2038 24.8991 19.766 26.5036 20.7872C28.0568 21.7758 29.1101 22.1076 30.1226 22.1076C31.1351 22.1076 32.1884 21.7758 33.7416 20.7872C35.3462 19.766 37.2467 18.2038 39.9842 15.9464L46.3187 10.7226C47.2523 9.95265 48.64 10.0775 49.418 11.0014Z" fill="#8BC63E"/>
</svg>
