<svg width="77" height="77" viewBox="0 0 77 77" fill="none" xmlns="http://www.w3.org/2000/svg">
<g clip-path="url(#clip0_4736_3004)">
<path d="M76.5507 38.4707C76.5507 17.4569 59.5157 0.421875 38.5019 0.421875C17.4881 0.421875 0.453125 17.4569 0.453125 38.4707C0.453125 57.4616 14.3669 73.2028 32.5568 76.0572V49.4691H22.896V38.4707H32.5568V30.088C32.5568 20.5521 38.2373 15.2847 46.9284 15.2847C51.09 15.2847 55.4455 16.0278 55.4455 16.0278V25.3914H50.6478C45.9214 25.3914 44.447 28.3246 44.447 31.3365V38.4707H54.9996L53.3127 49.4691H44.447V76.0572C62.6369 73.2028 76.5507 57.4616 76.5507 38.4707Z" fill="#1877F2"/>
<path d="M53.3152 49.4691L55.0021 38.4706H44.4495V31.3365C44.4495 28.3275 45.9239 25.3914 50.6503 25.3914H55.448V16.0278C55.448 16.0278 51.0939 15.2847 46.9308 15.2847C38.2398 15.2847 32.5593 20.552 32.5593 30.088V38.4706H22.8984V49.4691H32.5593V76.0572C36.4987 76.6735 40.51 76.6735 44.4495 76.0572V49.4691H53.3152Z" fill="white"/>
</g>
<defs>
<clipPath id="clip0_4736_3004">
<rect width="76.0976" height="76.0976" fill="white" transform="translate(0.453125 0.421875)"/>
</clipPath>
</defs>
</svg>
