<svg width="77" height="77" viewBox="0 0 77 77" fill="none" xmlns="http://www.w3.org/2000/svg">
<g clip-path="url(#clip0_4736_3010)">
<path d="M38.0469 31.5527V46.288H58.524C57.6248 51.0268 54.9265 55.0394 50.8795 57.7373L63.228 67.3188C70.4227 60.6778 74.5735 50.9234 74.5735 39.3358C74.5735 36.6379 74.3314 34.0434 73.8816 31.5531L38.0469 31.5527Z" fill="#4285F4"/>
<path d="M16.7371 45.7129L13.952 47.8448L4.09375 55.5236C10.3545 67.9412 23.1864 76.5197 38.0598 76.5197C48.3328 76.5197 56.9455 73.1298 63.241 67.3189L50.8925 57.7374C47.5027 60.0203 43.1789 61.4041 38.0598 61.4041C28.1672 61.4041 19.7621 54.7283 16.7526 45.7349L16.7371 45.7129Z" fill="#34A853"/>
<path d="M4.0813 21.4178C1.48721 26.5369 0 32.3135 0 38.4704C0 44.6273 1.48721 50.4039 4.0813 55.5229C4.0813 55.5573 16.7414 45.6994 16.7414 45.6994C15.9804 43.4165 15.5306 40.9954 15.5306 38.47C15.5306 35.9446 15.9804 33.5235 16.7414 31.2406L4.0813 21.4178Z" fill="#FBBC05"/>
<path d="M38.0606 15.5722C43.6643 15.5722 48.6451 17.5092 52.6229 21.2449L63.5186 10.3493C56.9119 4.1924 48.3339 0.421875 38.0606 0.421875C23.1871 0.421875 10.3545 8.96554 4.09375 21.4179L16.7534 31.2414C19.7626 22.248 28.168 15.5722 38.0606 15.5722Z" fill="#EA4335"/>
</g>
<defs>
<clipPath id="clip0_4736_3010">
<rect width="76.0976" height="76.0976" fill="white" transform="translate(0 0.421875)"/>
</clipPath>
</defs>
</svg>
