<svg width="78" height="77" viewBox="0 0 78 77" fill="none" xmlns="http://www.w3.org/2000/svg">
<path fill-rule="evenodd" clip-rule="evenodd" d="M19.4634 38.4707C19.4634 27.6797 28.211 18.9321 39.002 18.9321C49.7928 18.9321 58.5405 27.6797 58.5405 38.4707C58.5405 49.2616 49.7928 58.0092 39.002 58.0092C28.211 58.0092 19.4634 49.2616 19.4634 38.4707ZM39.002 51.1536C31.9973 51.1536 26.319 45.4753 26.319 38.4707C26.319 31.466 31.9973 25.7877 39.002 25.7877C46.0065 25.7877 51.6848 31.466 51.6848 38.4707C51.6848 45.4753 46.0065 51.1536 39.002 51.1536Z" fill="url(#paint0_linear_4801_320)"/>
<path fill-rule="evenodd" clip-rule="evenodd" d="M19.4634 38.4707C19.4634 27.6797 28.211 18.9321 39.002 18.9321C49.7928 18.9321 58.5405 27.6797 58.5405 38.4707C58.5405 49.2616 49.7928 58.0092 39.002 58.0092C28.211 58.0092 19.4634 49.2616 19.4634 38.4707ZM39.002 51.1536C31.9973 51.1536 26.319 45.4753 26.319 38.4707C26.319 31.466 31.9973 25.7877 39.002 25.7877C46.0065 25.7877 51.6848 31.466 51.6848 38.4707C51.6848 45.4753 46.0065 51.1536 39.002 51.1536Z" fill="url(#paint1_radial_4801_320)"/>
<path d="M59.3124 22.7259C61.8341 22.7259 63.8783 20.6818 63.8783 18.1602C63.8783 15.6385 61.8341 13.5942 59.3124 13.5942C56.7909 13.5942 54.7466 15.6385 54.7466 18.1602C54.7466 20.6818 56.7909 22.7259 59.3124 22.7259Z" fill="url(#paint2_linear_4801_320)"/>
<path d="M59.3124 22.7259C61.8341 22.7259 63.8783 20.6818 63.8783 18.1602C63.8783 15.6385 61.8341 13.5942 59.3124 13.5942C56.7909 13.5942 54.7466 15.6385 54.7466 18.1602C54.7466 20.6818 56.7909 22.7259 59.3124 22.7259Z" fill="url(#paint3_radial_4801_320)"/>
<path fill-rule="evenodd" clip-rule="evenodd" d="M39.002 0.421875C28.6685 0.421875 27.3727 0.465675 23.3144 0.650844C19.2646 0.835559 16.4987 1.47882 14.0785 2.41946C11.5765 3.39167 9.45458 4.69269 7.33918 6.80793C5.22394 8.92333 3.92292 11.0452 2.95071 13.5473C2.01007 15.9674 1.36681 18.7333 1.18209 22.7832C0.996925 26.8415 0.953125 28.1372 0.953125 38.4707C0.953125 48.8041 0.996925 50.0998 1.18209 54.1581C1.36681 58.208 2.01007 60.9739 2.95071 63.394C3.92292 65.8961 5.22394 68.018 7.33918 70.1334C9.45458 72.2486 11.5765 73.5496 14.0785 74.522C16.4987 75.4625 19.2646 76.1057 23.3144 76.2905C27.3727 76.4756 28.6685 76.5194 39.002 76.5194C49.3353 76.5194 50.6311 76.4756 54.6894 76.2905C58.7392 76.1057 61.5051 75.4625 63.9253 74.522C66.4273 73.5496 68.5492 72.2486 70.6646 70.1334C72.7799 68.018 74.0809 65.8961 75.0533 63.394C75.9937 60.9739 76.637 58.208 76.8217 54.1581C77.0069 50.0998 77.0507 48.8041 77.0507 38.4707C77.0507 28.1372 77.0069 26.8415 76.8217 22.7832C76.637 18.7333 75.9937 15.9674 75.0533 13.5473C74.0809 11.0452 72.7799 8.92333 70.6646 6.80793C68.5492 4.69269 66.4273 3.39167 63.9253 2.41946C61.5051 1.47882 58.7392 0.835559 54.6894 0.650844C50.6311 0.465675 49.3353 0.421875 39.002 0.421875ZM39.002 7.2775C49.1613 7.2775 50.3648 7.31631 54.3769 7.49937C58.0866 7.66853 60.1013 8.28838 61.442 8.80945C63.218 9.49968 64.4855 10.3242 65.8169 11.6557C67.1484 12.9871 67.9729 14.2546 68.6631 16.0306C69.1842 17.3713 69.804 19.386 69.9732 23.0957C70.1563 27.1078 70.1951 28.3112 70.1951 38.4707C70.1951 48.6301 70.1563 49.8335 69.9732 53.8456C69.804 57.5553 69.1842 59.57 68.6631 60.9107C67.9729 62.6868 67.1484 63.9542 65.8169 65.2856C64.4855 66.6171 63.218 67.4416 61.442 68.1319C60.1013 68.6529 58.0866 69.2728 54.3769 69.4419C50.3654 69.625 49.1621 69.6638 39.002 69.6638C28.8417 69.6638 27.6386 69.625 23.6269 69.4419C19.9172 69.2728 17.9026 68.6529 16.5618 68.1319C14.7858 67.4416 13.5183 66.6171 12.187 65.2856C10.8556 63.9542 10.0309 62.6868 9.3407 60.9107C8.81963 59.57 8.19979 57.5553 8.03063 53.8456C7.84757 49.8335 7.80876 48.6301 7.80876 38.4707C7.80876 28.3112 7.84757 27.1078 8.03063 23.0957C8.19979 19.386 8.81963 17.3713 9.3407 16.0306C10.0309 14.2546 10.8554 12.9871 12.187 11.6557C13.5183 10.3242 14.7858 9.49968 16.5618 8.80945C17.9026 8.28838 19.9172 7.66853 23.6269 7.49937C27.639 7.31631 28.8425 7.2775 39.002 7.2775Z" fill="url(#paint4_linear_4801_320)"/>
<path fill-rule="evenodd" clip-rule="evenodd" d="M39.002 0.421875C28.6685 0.421875 27.3727 0.465675 23.3144 0.650844C19.2646 0.835559 16.4987 1.47882 14.0785 2.41946C11.5765 3.39167 9.45458 4.69269 7.33918 6.80793C5.22394 8.92333 3.92292 11.0452 2.95071 13.5473C2.01007 15.9674 1.36681 18.7333 1.18209 22.7832C0.996925 26.8415 0.953125 28.1372 0.953125 38.4707C0.953125 48.8041 0.996925 50.0998 1.18209 54.1581C1.36681 58.208 2.01007 60.9739 2.95071 63.394C3.92292 65.8961 5.22394 68.018 7.33918 70.1334C9.45458 72.2486 11.5765 73.5496 14.0785 74.522C16.4987 75.4625 19.2646 76.1057 23.3144 76.2905C27.3727 76.4756 28.6685 76.5194 39.002 76.5194C49.3353 76.5194 50.6311 76.4756 54.6894 76.2905C58.7392 76.1057 61.5051 75.4625 63.9253 74.522C66.4273 73.5496 68.5492 72.2486 70.6646 70.1334C72.7799 68.018 74.0809 65.8961 75.0533 63.394C75.9937 60.9739 76.637 58.208 76.8217 54.1581C77.0069 50.0998 77.0507 48.8041 77.0507 38.4707C77.0507 28.1372 77.0069 26.8415 76.8217 22.7832C76.637 18.7333 75.9937 15.9674 75.0533 13.5473C74.0809 11.0452 72.7799 8.92333 70.6646 6.80793C68.5492 4.69269 66.4273 3.39167 63.9253 2.41946C61.5051 1.47882 58.7392 0.835559 54.6894 0.650844C50.6311 0.465675 49.3353 0.421875 39.002 0.421875ZM39.002 7.2775C49.1613 7.2775 50.3648 7.31631 54.3769 7.49937C58.0866 7.66853 60.1013 8.28838 61.442 8.80945C63.218 9.49968 64.4855 10.3242 65.8169 11.6557C67.1484 12.9871 67.9729 14.2546 68.6631 16.0306C69.1842 17.3713 69.804 19.386 69.9732 23.0957C70.1563 27.1078 70.1951 28.3112 70.1951 38.4707C70.1951 48.6301 70.1563 49.8335 69.9732 53.8456C69.804 57.5553 69.1842 59.57 68.6631 60.9107C67.9729 62.6868 67.1484 63.9542 65.8169 65.2856C64.4855 66.6171 63.218 67.4416 61.442 68.1319C60.1013 68.6529 58.0866 69.2728 54.3769 69.4419C50.3654 69.625 49.1621 69.6638 39.002 69.6638C28.8417 69.6638 27.6386 69.625 23.6269 69.4419C19.9172 69.2728 17.9026 68.6529 16.5618 68.1319C14.7858 67.4416 13.5183 66.6171 12.187 65.2856C10.8556 63.9542 10.0309 62.6868 9.3407 60.9107C8.81963 59.57 8.19979 57.5553 8.03063 53.8456C7.84757 49.8335 7.80876 48.6301 7.80876 38.4707C7.80876 28.3112 7.84757 27.1078 8.03063 23.0957C8.19979 19.386 8.81963 17.3713 9.3407 16.0306C10.0309 14.2546 10.8554 12.9871 12.187 11.6557C13.5183 10.3242 14.7858 9.49968 16.5618 8.80945C17.9026 8.28838 19.9172 7.66853 23.6269 7.49937C27.639 7.31631 28.8425 7.2775 39.002 7.2775Z" fill="url(#paint5_radial_4801_320)"/>
<defs>
<linearGradient id="paint0_linear_4801_320" x1="5.39318" y1="4.42254" x2="29.3861" y2="97.23" gradientUnits="userSpaceOnUse">
<stop stop-color="#4E60D3"/>
<stop offset="0.142763" stop-color="#913BAF"/>
<stop offset="0.761458" stop-color="#D52D88"/>
<stop offset="1" stop-color="#F26D4F"/>
</linearGradient>
<radialGradient id="paint1_radial_4801_320" cx="0" cy="0" r="1" gradientUnits="userSpaceOnUse" gradientTransform="translate(23.9911 76.5194) rotate(32.1601) scale(71.071 51.1476)">
<stop stop-color="#FED276"/>
<stop offset="0.17024" stop-color="#FDBD61" stop-opacity="0.975006"/>
<stop offset="0.454081" stop-color="#F6804D"/>
<stop offset="1" stop-color="#E83D5C" stop-opacity="0.01"/>
</radialGradient>
<linearGradient id="paint2_linear_4801_320" x1="5.39318" y1="4.42254" x2="29.3861" y2="97.23" gradientUnits="userSpaceOnUse">
<stop stop-color="#4E60D3"/>
<stop offset="0.142763" stop-color="#913BAF"/>
<stop offset="0.761458" stop-color="#D52D88"/>
<stop offset="1" stop-color="#F26D4F"/>
</linearGradient>
<radialGradient id="paint3_radial_4801_320" cx="0" cy="0" r="1" gradientUnits="userSpaceOnUse" gradientTransform="translate(23.9911 76.5194) rotate(32.1601) scale(71.071 51.1476)">
<stop stop-color="#FED276"/>
<stop offset="0.17024" stop-color="#FDBD61" stop-opacity="0.975006"/>
<stop offset="0.454081" stop-color="#F6804D"/>
<stop offset="1" stop-color="#E83D5C" stop-opacity="0.01"/>
</radialGradient>
<linearGradient id="paint4_linear_4801_320" x1="5.39318" y1="4.42254" x2="29.3861" y2="97.23" gradientUnits="userSpaceOnUse">
<stop stop-color="#4E60D3"/>
<stop offset="0.142763" stop-color="#913BAF"/>
<stop offset="0.761458" stop-color="#D52D88"/>
<stop offset="1" stop-color="#F26D4F"/>
</linearGradient>
<radialGradient id="paint5_radial_4801_320" cx="0" cy="0" r="1" gradientUnits="userSpaceOnUse" gradientTransform="translate(23.9911 76.5194) rotate(32.1601) scale(71.071 51.1476)">
<stop stop-color="#FED276"/>
<stop offset="0.17024" stop-color="#FDBD61" stop-opacity="0.975006"/>
<stop offset="0.454081" stop-color="#F6804D"/>
<stop offset="1" stop-color="#E83D5C" stop-opacity="0.01"/>
</radialGradient>
</defs>
</svg>
