<svg width="54" height="73" viewBox="0 0 54 73" fill="none" xmlns="http://www.w3.org/2000/svg">
<path d="M27.1263 34.567C24.6065 34.567 22.1898 33.619 20.4081 31.9315C18.6263 30.2441 17.6253 27.9554 17.6253 25.569C17.6253 23.1826 18.6263 20.8939 20.4081 19.2064C22.1898 17.519 24.6065 16.571 27.1263 16.571C29.6461 16.571 32.0627 17.519 33.8445 19.2064C35.6263 20.8939 36.6273 23.1826 36.6273 25.569C36.6273 26.7506 36.3816 27.9207 35.9041 29.0124C35.4266 30.1041 34.7268 31.096 33.8445 31.9315C32.9623 32.7671 31.9149 33.4299 30.7622 33.8821C29.6095 34.3343 28.374 34.567 27.1263 34.567ZM27.1263 0.374512C20.0708 0.374512 13.3042 3.02892 8.31523 7.7538C3.32623 12.4787 0.523438 18.887 0.523438 25.569C0.523438 44.4648 27.1263 72.3587 27.1263 72.3587C27.1263 72.3587 53.7291 44.4648 53.7291 25.569C53.7291 18.887 50.9263 12.4787 45.9373 7.7538C40.9483 3.02892 34.1818 0.374512 27.1263 0.374512Z" fill="#8BC63E"/>
</svg>
