<svg width="60" height="65" viewBox="0 0 60 65" fill="none" xmlns="http://www.w3.org/2000/svg">
<path d="M22.8158 5.98688L25.1961 10.6076C27.3443 14.7775 26.482 20.2477 23.0986 23.913C23.0986 23.913 23.0986 23.913 23.0986 23.913C23.0983 23.9134 18.9951 28.3593 26.4355 36.4197C33.8739 44.478 37.9777 40.0373 37.9802 40.0347C37.9802 40.0346 37.9802 40.0346 37.9803 40.0345C41.3636 36.3694 46.413 35.4352 50.2621 37.7623L54.5274 40.3411C60.3396 43.8551 61.0261 52.6855 55.9172 58.2201C52.8473 61.5458 49.0866 64.1335 44.9294 64.3043C37.9309 64.5917 26.0459 62.6729 14.1238 49.7574C2.20176 36.8418 0.430596 23.9663 0.695904 16.3847C0.853505 11.881 3.24219 7.80691 6.31204 4.48124C11.4209 -1.05339 19.572 -0.309759 22.8158 5.98688Z" fill="#8BC63E"/>
</svg>
